<mxfile host="app.diagrams.net" modified="2023-11-21T16:12:27.702Z" agent="Mozilla/5.0 (X11; Linux x86_64; rv:109.0) Gecko/20100101 Firefox/114.0" version="22.1.3" etag="WlCc83YL2PpfXk3SCy-T" type="github">
  <diagram name="PÃ¡gina-1" id="40eAH0wD4FQ_Gi7XHtI9">
    <mxGraphModel>
      <root>
        <mxCell id="0" />
        <mxCell id="1" parent="0" />
      </root>
    </mxGraphModel>
  </diagram>
</mxfile>
